<mxfile host="65bd71144e">
    <diagram id="4YqW_GG4WSl5cSpqKWws" name="Page-1">
        <mxGraphModel dx="746" dy="342" grid="1" gridSize="10" guides="1" tooltips="1" connect="1" arrows="1" fold="1" page="1" pageScale="1" pageWidth="850" pageHeight="1100" math="0" shadow="0">
            <root>
                <mxCell id="0"/>
                <mxCell id="1" parent="0"/>
                <mxCell id="5" style="edgeStyle=none;html=1;entryX=0;entryY=0.5;entryDx=0;entryDy=0;exitX=1;exitY=0.5;exitDx=0;exitDy=0;" parent="1" source="38" target="39" edge="1">
                    <mxGeometry relative="1" as="geometry">
                        <mxPoint x="380" y="250" as="targetPoint"/>
                        <mxPoint x="310" y="250" as="sourcePoint"/>
                    </mxGeometry>
                </mxCell>
                <mxCell id="4" style="edgeStyle=none;html=1;entryX=0;entryY=0.5;entryDx=0;entryDy=0;" parent="1" source="3" edge="1">
                    <mxGeometry relative="1" as="geometry">
                        <mxPoint x="190" y="250" as="targetPoint"/>
                    </mxGeometry>
                </mxCell>
                <mxCell id="3" value="Start" style="ellipse;whiteSpace=wrap;html=1;fillColor=#ffe6cc;strokeColor=#d79b00;" parent="1" vertex="1">
                    <mxGeometry x="10" y="210" width="120" height="80" as="geometry"/>
                </mxCell>
                <mxCell id="16" value="" style="edgeStyle=none;html=1;" parent="1" source="13" target="15" edge="1">
                    <mxGeometry relative="1" as="geometry"/>
                </mxCell>
                <mxCell id="13" value="&lt;span style=&quot;color: rgb(0, 0, 0);&quot;&gt;Calculate the number and occurence of each orbit&lt;/span&gt;" style="whiteSpace=wrap;html=1;fillColor=#dae8fc;strokeColor=#6c8ebf;rounded=0;" parent="1" vertex="1">
                    <mxGeometry x="190" y="320" width="120" height="60" as="geometry"/>
                </mxCell>
                <mxCell id="17" style="edgeStyle=none;html=1;exitX=0.5;exitY=1;exitDx=0;exitDy=0;" parent="1" source="15" target="18" edge="1">
                    <mxGeometry relative="1" as="geometry">
                        <mxPoint x="70" y="420" as="targetPoint"/>
                    </mxGeometry>
                </mxCell>
                <mxCell id="15" value="&lt;span style=&quot;color: rgb(0, 0, 0);&quot;&gt;Calculate the number and occurence of mission outcome of the orbits&lt;/span&gt;" style="whiteSpace=wrap;html=1;fillColor=#dae8fc;strokeColor=#6c8ebf;rounded=0;" parent="1" vertex="1">
                    <mxGeometry x="10" y="320" width="120" height="60" as="geometry"/>
                </mxCell>
                <mxCell id="20" value="" style="edgeStyle=none;html=1;entryX=0;entryY=0.5;entryDx=0;entryDy=0;" parent="1" source="18" target="28" edge="1">
                    <mxGeometry relative="1" as="geometry">
                        <mxPoint x="170" y="450" as="targetPoint"/>
                    </mxGeometry>
                </mxCell>
                <mxCell id="18" value="Create landing outcome lable from Outcome column" style="rounded=0;whiteSpace=wrap;html=1;fillColor=#dae8fc;strokeColor=#6c8ebf;" parent="1" vertex="1">
                    <mxGeometry x="10" y="420" width="120" height="60" as="geometry"/>
                </mxCell>
                <mxCell id="36" value="" style="edgeStyle=none;html=1;" parent="1" target="35" edge="1">
                    <mxGeometry relative="1" as="geometry">
                        <mxPoint x="450" y="280" as="sourcePoint"/>
                    </mxGeometry>
                </mxCell>
                <mxCell id="34" style="edgeStyle=none;html=1;exitX=1;exitY=0.5;exitDx=0;exitDy=0;" parent="1" source="28" target="33" edge="1">
                    <mxGeometry relative="1" as="geometry"/>
                </mxCell>
                <mxCell id="28" value="&lt;span style=&quot;color: rgb(0, 0, 0);&quot;&gt;Save prepared data&amp;nbsp;&lt;/span&gt;&lt;div&gt;&lt;span style=&quot;color: rgb(0, 0, 0);&quot;&gt;into c&lt;/span&gt;&lt;span style=&quot;background-color: transparent;&quot;&gt;sv file&lt;/span&gt;&lt;/div&gt;" style="shape=parallelogram;perimeter=parallelogramPerimeter;whiteSpace=wrap;html=1;fixedSize=1;fillColor=#d5e8d4;strokeColor=#82b366;" parent="1" vertex="1">
                    <mxGeometry x="200" y="420" width="160" height="60" as="geometry"/>
                </mxCell>
                <mxCell id="33" value="End" style="ellipse;whiteSpace=wrap;html=1;fillColor=#ffe6cc;strokeColor=#d79b00;" parent="1" vertex="1">
                    <mxGeometry x="400" y="410" width="120" height="80" as="geometry"/>
                </mxCell>
                <mxCell id="37" style="edgeStyle=none;html=1;exitX=0;exitY=0.5;exitDx=0;exitDy=0;entryX=1;entryY=0.5;entryDx=0;entryDy=0;" parent="1" source="35" target="13" edge="1">
                    <mxGeometry relative="1" as="geometry"/>
                </mxCell>
                <mxCell id="35" value="&lt;span style=&quot;color: rgb(0, 0, 0);&quot;&gt;Calculate the number of&lt;/span&gt;&lt;div&gt;&lt;span style=&quot;color: rgb(0, 0, 0);&quot;&gt;launches from each site&lt;/span&gt;&lt;/div&gt;" style="whiteSpace=wrap;html=1;fillColor=#dae8fc;strokeColor=#6c8ebf;" parent="1" vertex="1">
                    <mxGeometry x="390" y="320" width="120" height="60" as="geometry"/>
                </mxCell>
                <mxCell id="38" value="Load dataset and convert&lt;div&gt;&amp;nbsp;it into pandas dataframe&lt;/div&gt;" style="shape=parallelogram;perimeter=parallelogramPerimeter;whiteSpace=wrap;html=1;fixedSize=1;fillColor=#d5e8d4;strokeColor=#82b366;" vertex="1" parent="1">
                    <mxGeometry x="180" y="220" width="160" height="60" as="geometry"/>
                </mxCell>
                <mxCell id="39" value="&lt;span style=&quot;color: rgb(0, 0, 0);&quot;&gt;Identify type of attributes and missing values in each attr&lt;/span&gt;" style="whiteSpace=wrap;html=1;fillColor=#dae8fc;strokeColor=#6c8ebf;" vertex="1" parent="1">
                    <mxGeometry x="390" y="220" width="120" height="60" as="geometry"/>
                </mxCell>
            </root>
        </mxGraphModel>
    </diagram>
</mxfile>